<svg xmlns="http://www.w3.org/2000/svg" version="1.0" preserveAspectRatio="xMidYMid meet" viewBox="139.16 379.13 769.84 216.66">

<g transform="translate(0.000000,1024.000000) scale(0.100000,-0.100000)" fill="#000000" stroke="none">
<path d="M3865 6431 c-184 -41 -1942 -553 -2014 -587 -345 -162 -519 -516 -441 -894 50 -246 227 -466 466 -582 107 -52 206 -77 329 -84 126 -8 207 7 472 85 109 33 421 125 693 206 1061 315 1084 323 1223 435 133 107 226 253 268 421 29 111 23 307 -11 414 -53 167 -165 332 -286 423 -205 153 -467 214 -699 163z m313 -107 c250 -51 454 -233 538 -479 39 -115 46 -287 15 -400 -34 -123 -84 -208 -176 -300 -129 -130 -96 -117 -1025 -400 -79 -24 -145 -43 -145 -42 -1 1 -17 58 -37 127 -80 278 -174 577 -279 882 -61 177 -111 326 -112 332 -1 5 63 29 143 52 247 72 804 232 825 237 46 11 181 6 253 -9z m-1550 -486 c18 -18 15 -56 -5 -67 -10 -5 -130 -41 -268 -80 -299 -85 -364 -115 -472 -215 -68 -62 -85 -73 -108 -69 -37 8 -51 42 -32 79 25 47 105 120 170 155 57 30 631 205 683 208 11 1 25 -4 32 -11z"/>
<path d="M4070 6088 c-52 -16 -152 -47 -222 -69 -105 -33 -128 -43 -128 -59 0 -10 4 -21 9 -24 5 -3 113 26 241 64 128 39 234 70 237 70 2 0 3 10 1 23 -4 31 -28 30 -138 -5z"/>
<path d="M3421 5924 c-79 -24 -146 -45 -148 -48 -6 -5 105 -348 116 -359 5 -5 51 5 102 22 52 16 119 37 149 46 94 27 93 12 25 210 -51 150 -63 175 -80 174 -11 0 -85 -20 -164 -45z"/>
<path d="M4035 5919 c-88 -27 -184 -56 -212 -65 -41 -12 -53 -20 -53 -35 0 -11 6 -22 13 -25 15 -6 444 121 463 137 20 16 5 39 -25 38 -14 0 -98 -23 -186 -50z"/>
<path d="M4035 5760 c-219 -67 -246 -80 -212 -108 10 -9 67 5 242 58 125 38 232 73 237 78 14 14 -3 42 -26 41 -11 -1 -120 -32 -241 -69z"/>
<path d="M4140 5630 c-85 -27 -252 -78 -370 -114 -118 -35 -242 -73 -275 -83 -52 -16 -60 -22 -60 -43 0 -19 5 -24 20 -22 21 3 528 155 755 226 113 35 135 45 135 61 0 32 -37 27 -205 -25z"/>
<path d="M3980 5424 c-41 -13 -122 -38 -180 -55 -266 -77 -330 -101 -330 -119 0 -11 4 -22 10 -25 5 -3 56 8 112 25 57 17 192 58 301 90 109 33 202 62 207 65 6 4 10 15 10 26 0 26 -36 24 -130 -7z"/>
<path d="M5378 5894 c-4 -3 -3 -17 3 -31 17 -46 14 -48 -82 -48 -50 0 -93 -4 -96 -8 -2 -4 -2 -26 2 -47 l7 -40 232 0 232 0 -2 48 -2 47 -78 1 -79 1 -11 39 c-11 39 -11 39 -65 42 -30 2 -58 0 -61 -4z"/>
<path d="M8588 5889 c-2 -7 -68 -12 -187 -14 -101 -2 -188 -8 -193 -13 -6 -6 -8 -18 -6 -28 3 -17 17 -18 196 -16 168 3 192 1 192 -13 0 -13 -22 -15 -160 -15 l-160 0 0 -64 0 -63 161 5 c154 5 161 4 157 -14 -3 -18 -14 -19 -148 -19 -80 -1 -166 -2 -192 -3 l-48 -2 0 -69 c0 -81 1 -82 82 -72 4 1 8 16 10 34 l3 32 148 3 c126 2 147 0 147 -13 0 -20 73 -20 94 0 12 12 44 15 160 15 l146 0 0 -30 c0 -29 1 -30 50 -30 l50 0 0 65 0 65 -37 2 c-37 2 -92 3 -275 6 -71 2 -88 5 -88 17 0 13 26 15 171 15 152 0 170 2 165 16 -3 9 -6 36 -6 60 l0 44 -165 0 c-139 0 -165 2 -165 15 0 12 31 15 198 17 191 3 197 4 194 23 -2 11 -5 22 -7 24 -2 2 -87 3 -190 2 -159 -2 -186 0 -191 14 -7 18 -100 22 -106 4z m2 -164 c0 -12 -20 -15 -120 -15 -100 0 -120 3 -120 15 0 13 20 15 120 15 100 0 120 -2 120 -15z m360 0 c0 -13 -21 -15 -130 -15 -109 0 -130 2 -130 15 0 13 21 15 130 15 109 0 130 -2 130 -15z"/>
<path d="M6040 5874 c-30 -8 -114 -17 -186 -21 l-132 -6 -5 -336 c-4 -258 -9 -352 -21 -405 -9 -38 -15 -70 -14 -72 2 -1 26 -4 53 -5 l50 -4 22 85 c18 70 22 114 22 253 l1 167 45 0 45 0 0 -255 0 -255 60 0 61 0 -3 255 -3 254 35 3 c34 3 35 4 35 48 l0 45 -137 3 -138 3 0 57 0 58 127 13 c70 7 130 14 135 17 4 3 7 29 7 59 -1 30 -2 55 -3 54 0 -1 -26 -7 -56 -15z"/>
<path d="M6307 5883 c-12 -3 -15 -11 -12 -26 3 -12 9 -42 13 -67 l7 -45 73 -3 c82 -3 76 -15 52 96 l-12 52 -51 -1 c-29 -1 -60 -3 -70 -6z"/>
<path d="M7720 5886 c0 -2 7 -23 15 -46 8 -23 15 -44 15 -46 0 -2 -38 -4 -85 -4 l-85 0 0 -45 0 -45 245 0 245 0 0 50 0 50 -99 0 -99 0 -6 45 -7 45 -70 0 c-38 0 -69 -2 -69 -4z"/>
<path d="M6507 5853 c-2 -5 0 -27 5 -50 l9 -43 210 0 209 0 0 -326 0 -325 -47 3 -48 3 0 240 0 240 28 3 c24 3 27 7 27 43 l0 39 -251 0 -250 0 3 -42 c3 -40 5 -43 31 -43 l27 1 0 -193 0 -193 -30 0 c-29 0 -30 -2 -30 -46 l0 -47 113 6 c61 4 136 10 165 13 l52 7 0 -42 0 -41 50 0 c29 0 50 5 50 11 0 5 5 7 10 4 6 -3 10 -17 10 -31 0 -23 3 -24 61 -24 80 0 137 17 145 44 4 12 8 195 8 409 l1 387 -277 0 c-152 0 -279 -3 -281 -7z m223 -293 l0 -41 -77 3 -76 3 -2 30 c-1 17 0 33 2 38 2 4 38 7 79 7 l74 0 0 -40z m0 -150 l0 -30 -75 0 -75 0 0 30 0 30 75 0 75 0 0 -30z m-2 -142 l-3 -43 -72 -3 -73 -3 0 46 0 45 76 0 75 0 -3 -42z"/>
<path d="M7217 5478 c-3 -211 -9 -400 -12 -420 l-7 -38 55 0 55 0 11 83 c7 45 13 111 14 147 l2 65 48 3 48 3 -3 -113 -3 -113 -32 -3 c-30 -3 -33 -6 -33 -37 0 -25 5 -35 20 -40 35 -11 112 6 137 31 l23 23 0 396 0 395 -159 0 -159 0 -5 -382z m211 220 l3 -68 -51 0 -50 0 0 71 0 70 48 -3 47 -3 3 -67z m2 -223 l0 -65 -50 0 -50 0 0 65 0 65 50 0 50 0 0 -65z"/>
<path d="M6273 5713 l-33 -4 0 -345 0 -344 60 0 60 0 -2 348 -3 347 -25 1 c-14 1 -40 -1 -57 -3z"/>
<path d="M5495 5690 c-1 -3 -8 -22 -14 -42 -11 -34 -16 -38 -46 -38 -27 0 -34 4 -40 27 -11 44 -24 53 -77 53 -45 0 -49 -2 -44 -20 3 -11 9 -29 12 -40 5 -18 1 -20 -40 -20 l-46 0 0 -45 0 -45 95 0 95 0 0 -40 0 -40 -89 0 c-96 0 -100 -3 -101 -67 0 -22 3 -23 95 -23 l95 0 0 -165 0 -165 55 0 55 0 0 165 0 165 84 0 c91 0 96 3 96 61 l0 29 -90 0 -90 0 0 40 0 40 90 0 90 0 0 45 0 45 -51 0 c-45 0 -50 2 -44 18 23 54 20 60 -35 63 -29 2 -53 2 -55 -1z"/>
<path d="M7625 5607 c-22 -29 -43 -60 -47 -70 -9 -22 7 -57 26 -57 7 0 28 -34 46 -76 19 -42 46 -93 62 -115 15 -21 28 -43 28 -49 0 -11 -92 -81 -137 -104 -31 -16 -33 -19 -33 -72 0 -53 1 -55 23 -48 43 13 95 44 160 93 l64 50 54 -41 c54 -41 163 -98 187 -98 8 0 12 18 12 58 l0 57 -58 28 c-31 15 -72 40 -89 56 l-33 27 24 33 c14 18 39 66 57 106 18 42 39 75 49 78 11 3 19 17 22 37 4 28 -2 41 -49 96 -53 63 -55 64 -104 64 -34 0 -51 -5 -55 -14 -3 -8 13 -42 35 -76 l42 -62 -43 -86 c-24 -47 -47 -86 -53 -85 -5 0 -32 41 -58 92 l-49 91 41 65 c23 35 41 67 41 70 0 3 -28 5 -62 4 l-63 0 -40 -52z"/>
<path d="M8535 5520 c-11 -5 -59 -9 -107 -9 -109 -1 -118 -5 -118 -46 0 -31 2 -33 48 -42 37 -6 47 -12 47 -28 0 -18 -8 -20 -92 -23 l-93 -3 0 -29 0 -30 96 0 c85 0 95 -2 92 -17 -3 -14 -23 -21 -98 -33 -91 -14 -95 -16 -95 -40 l0 -25 98 4 c59 2 97 -1 97 -7 0 -8 -165 -52 -197 -52 -9 0 -13 -17 -13 -51 0 -45 2 -50 18 -44 37 15 187 65 194 65 5 0 8 -12 8 -27 0 -54 9 -58 132 -58 l113 0 3 33 3 32 -74 0 c-55 0 -76 4 -80 14 -9 22 2 26 65 26 53 0 58 2 59 23 l0 22 16 -22 c8 -13 26 -23 39 -23 13 0 35 -11 50 -25 57 -53 162 -85 282 -85 49 0 52 2 52 25 0 14 1 28 1 33 1 4 -21 11 -47 15 -27 4 -55 14 -63 22 -12 12 -11 15 10 19 13 3 40 7 59 8 29 3 34 7 32 23 -5 28 -3 27 -82 33 -93 6 -100 22 -10 22 54 0 72 4 76 15 12 32 -15 45 -92 45 -58 0 -74 3 -74 15 0 11 19 15 88 17 l87 3 0 30 c0 25 -4 30 -25 31 -14 0 -53 1 -88 2 -60 2 -63 3 -60 25 2 18 10 23 43 25 50 4 59 12 50 50 l-6 31 -157 -2 -157 -2 -3 -32 c-3 -34 4 -39 73 -45 22 -2 31 -9 33 -24 3 -24 -19 -34 -75 -34 -30 0 -33 -3 -33 -30 0 -30 1 -30 55 -30 41 0 55 -4 55 -14 0 -11 -14 -16 -47 -18 -44 -3 -48 -5 -51 -30 -3 -28 -2 -28 52 -28 43 0 56 -3 56 -15 0 -12 -17 -15 -92 -15 -51 0 -110 -3 -130 -6 -31 -5 -38 -4 -38 9 0 12 15 18 60 23 58 6 60 8 60 35 0 29 0 29 -65 29 -51 0 -65 3 -65 15 0 12 14 15 65 15 l65 0 0 30 c0 30 0 30 -58 30 -32 0 -61 2 -64 5 -3 3 -3 16 0 30 4 22 10 24 61 27 49 3 56 6 59 25 2 15 -6 32 -24 48 -28 26 -45 29 -79 15z m338 -401 c-8 -8 -16 -8 -30 0 -16 9 -14 10 12 11 21 0 26 -3 18 -11z"/>
<path d="M5240 5278 c0 -18 -11 -79 -25 -136 -14 -57 -25 -105 -25 -108 0 -3 23 -4 52 -2 l52 3 21 80 c12 44 25 106 29 138 l7 57 -55 0 -56 0 0 -32z"/>
<path d="M5535 5300 c-3 -5 3 -62 15 -125 l22 -115 44 0 c51 0 50 -9 25 140 l-17 105 -41 3 c-23 2 -44 -2 -48 -8z"/>
</g>
</svg>